<svg xmlns="http://www.w3.org/2000/svg" xmlns:xlink="http://www.w3.org/1999/xlink" width="500" zoomAndPan="magnify" viewBox="0 0 375 374.999991" height="500" preserveAspectRatio="xMidYMid meet" version="1.0"><defs><g/><clipPath id="211bcf1663"><path d="M 19.347656 11.890625 L 355.652344 11.890625 L 355.652344 348.191406 L 19.347656 348.191406 Z M 19.347656 11.890625 " clip-rule="nonzero"/></clipPath><clipPath id="102698bfbd"><path d="M 187.5 11.890625 C 94.632812 11.890625 19.347656 87.175781 19.347656 180.042969 C 19.347656 272.910156 94.632812 348.191406 187.5 348.191406 C 280.367188 348.191406 355.652344 272.910156 355.652344 180.042969 C 355.652344 87.175781 280.367188 11.890625 187.5 11.890625 Z M 187.5 11.890625 " clip-rule="nonzero"/></clipPath><clipPath id="05b5e075d5"><path d="M 0.347656 0.890625 L 336.652344 0.890625 L 336.652344 337.191406 L 0.347656 337.191406 Z M 0.347656 0.890625 " clip-rule="nonzero"/></clipPath><clipPath id="43afa68691"><path d="M 168.5 0.890625 C 75.632812 0.890625 0.347656 76.175781 0.347656 169.042969 C 0.347656 261.910156 75.632812 337.191406 168.5 337.191406 C 261.367188 337.191406 336.652344 261.910156 336.652344 169.042969 C 336.652344 76.175781 261.367188 0.890625 168.5 0.890625 Z M 168.5 0.890625 " clip-rule="nonzero"/></clipPath><linearGradient x1="0.000000000000007105" gradientTransform="matrix(0.749, 0, 0, 0.749, 0.349553, 0.892388)" y1="224.5" x2="449" gradientUnits="userSpaceOnUse" y2="224.5" id="cd18cb7386"><stop stop-opacity="1" stop-color="rgb(55.288696%, 50.588989%, 50.588989%)" offset="0"/><stop stop-opacity="1" stop-color="rgb(55.615234%, 50.801086%, 50.248718%)" offset="0.00390625"/><stop stop-opacity="1" stop-color="rgb(55.943298%, 51.013184%, 49.908447%)" offset="0.0078125"/><stop stop-opacity="1" stop-color="rgb(56.269836%, 51.223755%, 49.568176%)" offset="0.0117188"/><stop stop-opacity="1" stop-color="rgb(56.596375%, 51.435852%, 49.227905%)" offset="0.015625"/><stop stop-opacity="1" stop-color="rgb(56.922913%, 51.646423%, 48.887634%)" offset="0.0195312"/><stop stop-opacity="1" stop-color="rgb(57.249451%, 51.858521%, 48.547363%)" offset="0.0234375"/><stop stop-opacity="1" stop-color="rgb(57.575989%, 52.070618%, 48.205566%)" offset="0.0273438"/><stop stop-opacity="1" stop-color="rgb(57.902527%, 52.282715%, 47.865295%)" offset="0.03125"/><stop stop-opacity="1" stop-color="rgb(58.229065%, 52.493286%, 47.525024%)" offset="0.0351562"/><stop stop-opacity="1" stop-color="rgb(58.555603%, 52.705383%, 47.184753%)" offset="0.0390625"/><stop stop-opacity="1" stop-color="rgb(58.882141%, 52.915955%, 46.844482%)" offset="0.0429687"/><stop stop-opacity="1" stop-color="rgb(59.210205%, 53.128052%, 46.504211%)" offset="0.046875"/><stop stop-opacity="1" stop-color="rgb(59.536743%, 53.340149%, 46.16394%)" offset="0.0507813"/><stop stop-opacity="1" stop-color="rgb(59.863281%, 53.552246%, 45.823669%)" offset="0.0546875"/><stop stop-opacity="1" stop-color="rgb(60.189819%, 53.762817%, 45.483398%)" offset="0.0585938"/><stop stop-opacity="1" stop-color="rgb(60.516357%, 53.974915%, 45.143127%)" offset="0.0625"/><stop stop-opacity="1" stop-color="rgb(60.842896%, 54.187012%, 44.801331%)" offset="0.0664063"/><stop stop-opacity="1" stop-color="rgb(61.169434%, 54.399109%, 44.46106%)" offset="0.0703125"/><stop stop-opacity="1" stop-color="rgb(61.495972%, 54.60968%, 44.120789%)" offset="0.0742188"/><stop stop-opacity="1" stop-color="rgb(61.82251%, 54.821777%, 43.780518%)" offset="0.078125"/><stop stop-opacity="1" stop-color="rgb(62.149048%, 55.032349%, 43.440247%)" offset="0.0820312"/><stop stop-opacity="1" stop-color="rgb(62.477112%, 55.244446%, 43.099976%)" offset="0.0859375"/><stop stop-opacity="1" stop-color="rgb(62.80365%, 55.456543%, 42.759705%)" offset="0.0898438"/><stop stop-opacity="1" stop-color="rgb(63.130188%, 55.66864%, 42.419434%)" offset="0.09375"/><stop stop-opacity="1" stop-color="rgb(63.456726%, 55.879211%, 42.079163%)" offset="0.0976562"/><stop stop-opacity="1" stop-color="rgb(63.783264%, 56.091309%, 41.738892%)" offset="0.101562"/><stop stop-opacity="1" stop-color="rgb(64.109802%, 56.30188%, 41.397095%)" offset="0.105469"/><stop stop-opacity="1" stop-color="rgb(64.43634%, 56.513977%, 41.056824%)" offset="0.109375"/><stop stop-opacity="1" stop-color="rgb(64.762878%, 56.726074%, 40.716553%)" offset="0.113281"/><stop stop-opacity="1" stop-color="rgb(65.089417%, 56.938171%, 40.376282%)" offset="0.117187"/><stop stop-opacity="1" stop-color="rgb(65.415955%, 57.148743%, 40.036011%)" offset="0.121094"/><stop stop-opacity="1" stop-color="rgb(65.744019%, 57.36084%, 39.69574%)" offset="0.125"/><stop stop-opacity="1" stop-color="rgb(66.070557%, 57.571411%, 39.355469%)" offset="0.128906"/><stop stop-opacity="1" stop-color="rgb(66.397095%, 57.783508%, 39.015198%)" offset="0.132812"/><stop stop-opacity="1" stop-color="rgb(66.723633%, 57.995605%, 38.674927%)" offset="0.136719"/><stop stop-opacity="1" stop-color="rgb(67.050171%, 58.207703%, 38.334656%)" offset="0.140625"/><stop stop-opacity="1" stop-color="rgb(67.376709%, 58.418274%, 37.992859%)" offset="0.144531"/><stop stop-opacity="1" stop-color="rgb(67.703247%, 58.630371%, 37.652588%)" offset="0.148437"/><stop stop-opacity="1" stop-color="rgb(68.029785%, 58.842468%, 37.312317%)" offset="0.152344"/><stop stop-opacity="1" stop-color="rgb(68.356323%, 59.054565%, 36.972046%)" offset="0.15625"/><stop stop-opacity="1" stop-color="rgb(68.682861%, 59.265137%, 36.631775%)" offset="0.160156"/><stop stop-opacity="1" stop-color="rgb(69.010925%, 59.477234%, 36.291504%)" offset="0.164062"/><stop stop-opacity="1" stop-color="rgb(69.337463%, 59.687805%, 35.951233%)" offset="0.167969"/><stop stop-opacity="1" stop-color="rgb(69.664001%, 59.899902%, 35.610962%)" offset="0.171875"/><stop stop-opacity="1" stop-color="rgb(69.99054%, 60.112%, 35.270691%)" offset="0.175781"/><stop stop-opacity="1" stop-color="rgb(70.317078%, 60.324097%, 34.93042%)" offset="0.179687"/><stop stop-opacity="1" stop-color="rgb(70.643616%, 60.534668%, 34.590149%)" offset="0.183594"/><stop stop-opacity="1" stop-color="rgb(70.970154%, 60.746765%, 34.249878%)" offset="0.1875"/><stop stop-opacity="1" stop-color="rgb(71.296692%, 60.957336%, 33.908081%)" offset="0.191406"/><stop stop-opacity="1" stop-color="rgb(71.62323%, 61.169434%, 33.56781%)" offset="0.195312"/><stop stop-opacity="1" stop-color="rgb(71.949768%, 61.381531%, 33.227539%)" offset="0.199219"/><stop stop-opacity="1" stop-color="rgb(72.277832%, 61.593628%, 32.887268%)" offset="0.203125"/><stop stop-opacity="1" stop-color="rgb(72.60437%, 61.804199%, 32.546997%)" offset="0.207031"/><stop stop-opacity="1" stop-color="rgb(72.930908%, 62.016296%, 32.206726%)" offset="0.210938"/><stop stop-opacity="1" stop-color="rgb(73.257446%, 62.228394%, 31.866455%)" offset="0.214844"/><stop stop-opacity="1" stop-color="rgb(73.583984%, 62.440491%, 31.526184%)" offset="0.21875"/><stop stop-opacity="1" stop-color="rgb(73.910522%, 62.651062%, 31.185913%)" offset="0.222656"/><stop stop-opacity="1" stop-color="rgb(74.237061%, 62.863159%, 30.845642%)" offset="0.226562"/><stop stop-opacity="1" stop-color="rgb(74.563599%, 63.07373%, 30.503845%)" offset="0.230469"/><stop stop-opacity="1" stop-color="rgb(74.890137%, 63.285828%, 30.163574%)" offset="0.234375"/><stop stop-opacity="1" stop-color="rgb(75.216675%, 63.497925%, 29.823303%)" offset="0.238281"/><stop stop-opacity="1" stop-color="rgb(75.544739%, 63.710022%, 29.483032%)" offset="0.242187"/><stop stop-opacity="1" stop-color="rgb(75.871277%, 63.920593%, 29.142761%)" offset="0.246094"/><stop stop-opacity="1" stop-color="rgb(76.197815%, 64.13269%, 28.80249%)" offset="0.25"/><stop stop-opacity="1" stop-color="rgb(76.524353%, 64.343262%, 28.462219%)" offset="0.253906"/><stop stop-opacity="1" stop-color="rgb(76.850891%, 64.555359%, 28.121948%)" offset="0.257812"/><stop stop-opacity="1" stop-color="rgb(77.177429%, 64.767456%, 27.781677%)" offset="0.261719"/><stop stop-opacity="1" stop-color="rgb(77.503967%, 64.979553%, 27.441406%)" offset="0.265625"/><stop stop-opacity="1" stop-color="rgb(77.830505%, 65.190125%, 27.099609%)" offset="0.269531"/><stop stop-opacity="1" stop-color="rgb(78.158569%, 65.402222%, 26.759338%)" offset="0.273438"/><stop stop-opacity="1" stop-color="rgb(78.485107%, 65.614319%, 26.419067%)" offset="0.277344"/><stop stop-opacity="1" stop-color="rgb(78.811646%, 65.826416%, 26.078796%)" offset="0.28125"/><stop stop-opacity="1" stop-color="rgb(79.138184%, 66.036987%, 25.738525%)" offset="0.285156"/><stop stop-opacity="1" stop-color="rgb(79.464722%, 66.249084%, 25.398254%)" offset="0.289062"/><stop stop-opacity="1" stop-color="rgb(79.79126%, 66.459656%, 25.057983%)" offset="0.292969"/><stop stop-opacity="1" stop-color="rgb(80.117798%, 66.671753%, 24.717712%)" offset="0.296875"/><stop stop-opacity="1" stop-color="rgb(80.444336%, 66.88385%, 24.377441%)" offset="0.300781"/><stop stop-opacity="1" stop-color="rgb(80.770874%, 67.095947%, 24.03717%)" offset="0.304688"/><stop stop-opacity="1" stop-color="rgb(81.097412%, 67.306519%, 23.695374%)" offset="0.308594"/><stop stop-opacity="1" stop-color="rgb(81.425476%, 67.518616%, 23.355103%)" offset="0.3125"/><stop stop-opacity="1" stop-color="rgb(81.752014%, 67.729187%, 23.014832%)" offset="0.316406"/><stop stop-opacity="1" stop-color="rgb(82.078552%, 67.941284%, 22.674561%)" offset="0.320312"/><stop stop-opacity="1" stop-color="rgb(82.40509%, 68.153381%, 22.33429%)" offset="0.324219"/><stop stop-opacity="1" stop-color="rgb(82.731628%, 68.365479%, 21.994019%)" offset="0.328125"/><stop stop-opacity="1" stop-color="rgb(82.759094%, 68.377686%, 21.868896%)" offset="0.34375"/><stop stop-opacity="1" stop-color="rgb(82.65686%, 68.302917%, 21.809387%)" offset="0.351562"/><stop stop-opacity="1" stop-color="rgb(82.400513%, 68.127441%, 21.939087%)" offset="0.359375"/><stop stop-opacity="1" stop-color="rgb(82.144165%, 67.953491%, 22.067261%)" offset="0.367187"/><stop stop-opacity="1" stop-color="rgb(81.886292%, 67.779541%, 22.195435%)" offset="0.375"/><stop stop-opacity="1" stop-color="rgb(81.629944%, 67.605591%, 22.323608%)" offset="0.382813"/><stop stop-opacity="1" stop-color="rgb(81.373596%, 67.430115%, 22.451782%)" offset="0.390625"/><stop stop-opacity="1" stop-color="rgb(81.115723%, 67.256165%, 22.579956%)" offset="0.398438"/><stop stop-opacity="1" stop-color="rgb(80.859375%, 67.082214%, 22.709656%)" offset="0.40625"/><stop stop-opacity="1" stop-color="rgb(80.603027%, 66.908264%, 22.83783%)" offset="0.414063"/><stop stop-opacity="1" stop-color="rgb(80.345154%, 66.734314%, 22.966003%)" offset="0.421875"/><stop stop-opacity="1" stop-color="rgb(80.088806%, 66.558838%, 23.094177%)" offset="0.429688"/><stop stop-opacity="1" stop-color="rgb(79.832458%, 66.384888%, 23.222351%)" offset="0.4375"/><stop stop-opacity="1" stop-color="rgb(79.574585%, 66.210938%, 23.350525%)" offset="0.445312"/><stop stop-opacity="1" stop-color="rgb(79.318237%, 66.036987%, 23.478699%)" offset="0.453125"/><stop stop-opacity="1" stop-color="rgb(79.06189%, 65.863037%, 23.608398%)" offset="0.460938"/><stop stop-opacity="1" stop-color="rgb(78.804016%, 65.687561%, 23.736572%)" offset="0.46875"/><stop stop-opacity="1" stop-color="rgb(78.547668%, 65.513611%, 23.864746%)" offset="0.476562"/><stop stop-opacity="1" stop-color="rgb(78.291321%, 65.339661%, 23.99292%)" offset="0.484375"/><stop stop-opacity="1" stop-color="rgb(78.034973%, 65.16571%, 24.121094%)" offset="0.492188"/><stop stop-opacity="1" stop-color="rgb(77.7771%, 64.99176%, 24.249268%)" offset="0.5"/><stop stop-opacity="1" stop-color="rgb(77.520752%, 64.816284%, 24.378967%)" offset="0.507812"/><stop stop-opacity="1" stop-color="rgb(77.264404%, 64.642334%, 24.507141%)" offset="0.515625"/><stop stop-opacity="1" stop-color="rgb(77.006531%, 64.468384%, 24.635315%)" offset="0.523438"/><stop stop-opacity="1" stop-color="rgb(76.750183%, 64.294434%, 24.763489%)" offset="0.53125"/><stop stop-opacity="1" stop-color="rgb(76.493835%, 64.120483%, 24.891663%)" offset="0.539062"/><stop stop-opacity="1" stop-color="rgb(76.235962%, 63.945007%, 25.019836%)" offset="0.546875"/><stop stop-opacity="1" stop-color="rgb(75.979614%, 63.771057%, 25.149536%)" offset="0.554688"/><stop stop-opacity="1" stop-color="rgb(75.723267%, 63.597107%, 25.27771%)" offset="0.5625"/><stop stop-opacity="1" stop-color="rgb(75.465393%, 63.423157%, 25.405884%)" offset="0.570312"/><stop stop-opacity="1" stop-color="rgb(75.209045%, 63.249207%, 25.534058%)" offset="0.578125"/><stop stop-opacity="1" stop-color="rgb(74.952698%, 63.07373%, 25.662231%)" offset="0.585938"/><stop stop-opacity="1" stop-color="rgb(74.694824%, 62.89978%, 25.790405%)" offset="0.59375"/><stop stop-opacity="1" stop-color="rgb(74.438477%, 62.72583%, 25.918579%)" offset="0.601562"/><stop stop-opacity="1" stop-color="rgb(74.182129%, 62.55188%, 26.048279%)" offset="0.609375"/><stop stop-opacity="1" stop-color="rgb(73.924255%, 62.37793%, 26.176453%)" offset="0.617188"/><stop stop-opacity="1" stop-color="rgb(73.667908%, 62.202454%, 26.304626%)" offset="0.625"/><stop stop-opacity="1" stop-color="rgb(73.41156%, 62.028503%, 26.4328%)" offset="0.632812"/><stop stop-opacity="1" stop-color="rgb(73.155212%, 61.854553%, 26.560974%)" offset="0.640625"/><stop stop-opacity="1" stop-color="rgb(72.897339%, 61.680603%, 26.689148%)" offset="0.648437"/><stop stop-opacity="1" stop-color="rgb(72.640991%, 61.506653%, 26.818848%)" offset="0.65625"/><stop stop-opacity="1" stop-color="rgb(72.384644%, 61.331177%, 26.947021%)" offset="0.664062"/><stop stop-opacity="1" stop-color="rgb(72.038269%, 61.079407%, 27.006531%)" offset="0.667969"/><stop stop-opacity="1" stop-color="rgb(71.820068%, 60.914612%, 27.001953%)" offset="0.671875"/><stop stop-opacity="1" stop-color="rgb(71.548462%, 60.702515%, 26.956177%)" offset="0.675781"/><stop stop-opacity="1" stop-color="rgb(71.276855%, 60.491943%, 26.9104%)" offset="0.679687"/><stop stop-opacity="1" stop-color="rgb(71.005249%, 60.279846%, 26.863098%)" offset="0.683594"/><stop stop-opacity="1" stop-color="rgb(70.735168%, 60.069275%, 26.817322%)" offset="0.6875"/><stop stop-opacity="1" stop-color="rgb(70.463562%, 59.857178%, 26.771545%)" offset="0.691406"/><stop stop-opacity="1" stop-color="rgb(70.191956%, 59.645081%, 26.725769%)" offset="0.695312"/><stop stop-opacity="1" stop-color="rgb(69.920349%, 59.432983%, 26.679993%)" offset="0.699219"/><stop stop-opacity="1" stop-color="rgb(69.648743%, 59.222412%, 26.634216%)" offset="0.703125"/><stop stop-opacity="1" stop-color="rgb(69.377136%, 59.010315%, 26.58844%)" offset="0.707031"/><stop stop-opacity="1" stop-color="rgb(69.10553%, 58.798218%, 26.542664%)" offset="0.710937"/><stop stop-opacity="1" stop-color="rgb(68.833923%, 58.586121%, 26.495361%)" offset="0.714844"/><stop stop-opacity="1" stop-color="rgb(68.563843%, 58.375549%, 26.449585%)" offset="0.71875"/><stop stop-opacity="1" stop-color="rgb(68.292236%, 58.163452%, 26.403809%)" offset="0.722656"/><stop stop-opacity="1" stop-color="rgb(68.02063%, 57.952881%, 26.358032%)" offset="0.726562"/><stop stop-opacity="1" stop-color="rgb(67.749023%, 57.740784%, 26.312256%)" offset="0.730469"/><stop stop-opacity="1" stop-color="rgb(67.477417%, 57.528687%, 26.266479%)" offset="0.734375"/><stop stop-opacity="1" stop-color="rgb(67.205811%, 57.316589%, 26.219177%)" offset="0.738281"/><stop stop-opacity="1" stop-color="rgb(66.934204%, 57.106018%, 26.173401%)" offset="0.742187"/><stop stop-opacity="1" stop-color="rgb(66.662598%, 56.893921%, 26.127625%)" offset="0.746094"/><stop stop-opacity="1" stop-color="rgb(66.390991%, 56.68335%, 26.081848%)" offset="0.75"/><stop stop-opacity="1" stop-color="rgb(66.119385%, 56.471252%, 26.036072%)" offset="0.753906"/><stop stop-opacity="1" stop-color="rgb(65.849304%, 56.259155%, 25.990295%)" offset="0.757813"/><stop stop-opacity="1" stop-color="rgb(65.577698%, 56.047058%, 25.944519%)" offset="0.761719"/><stop stop-opacity="1" stop-color="rgb(65.306091%, 55.836487%, 25.898743%)" offset="0.765625"/><stop stop-opacity="1" stop-color="rgb(65.034485%, 55.62439%, 25.85144%)" offset="0.769531"/><stop stop-opacity="1" stop-color="rgb(64.762878%, 55.413818%, 25.805664%)" offset="0.773438"/><stop stop-opacity="1" stop-color="rgb(64.491272%, 55.201721%, 25.759888%)" offset="0.777344"/><stop stop-opacity="1" stop-color="rgb(64.219666%, 54.989624%, 25.714111%)" offset="0.78125"/><stop stop-opacity="1" stop-color="rgb(63.948059%, 54.777527%, 25.668335%)" offset="0.785156"/><stop stop-opacity="1" stop-color="rgb(63.676453%, 54.566956%, 25.622559%)" offset="0.789063"/><stop stop-opacity="1" stop-color="rgb(63.404846%, 54.354858%, 25.576782%)" offset="0.792969"/><stop stop-opacity="1" stop-color="rgb(63.134766%, 54.142761%, 25.531006%)" offset="0.796875"/><stop stop-opacity="1" stop-color="rgb(62.863159%, 53.930664%, 25.483704%)" offset="0.800781"/><stop stop-opacity="1" stop-color="rgb(62.591553%, 53.720093%, 25.437927%)" offset="0.804688"/><stop stop-opacity="1" stop-color="rgb(62.319946%, 53.507996%, 25.392151%)" offset="0.808594"/><stop stop-opacity="1" stop-color="rgb(62.04834%, 53.297424%, 25.346375%)" offset="0.8125"/><stop stop-opacity="1" stop-color="rgb(61.776733%, 53.085327%, 25.300598%)" offset="0.816406"/><stop stop-opacity="1" stop-color="rgb(61.505127%, 52.87323%, 25.254822%)" offset="0.820313"/><stop stop-opacity="1" stop-color="rgb(61.233521%, 52.661133%, 25.209045%)" offset="0.824219"/><stop stop-opacity="1" stop-color="rgb(60.96344%, 52.450562%, 25.163269%)" offset="0.828125"/><stop stop-opacity="1" stop-color="rgb(60.691833%, 52.238464%, 25.115967%)" offset="0.832031"/><stop stop-opacity="1" stop-color="rgb(60.420227%, 52.027893%, 25.07019%)" offset="0.835938"/><stop stop-opacity="1" stop-color="rgb(60.148621%, 51.815796%, 25.024414%)" offset="0.839844"/><stop stop-opacity="1" stop-color="rgb(59.877014%, 51.603699%, 24.978638%)" offset="0.84375"/><stop stop-opacity="1" stop-color="rgb(59.605408%, 51.391602%, 24.932861%)" offset="0.847656"/><stop stop-opacity="1" stop-color="rgb(59.333801%, 51.18103%, 24.887085%)" offset="0.851563"/><stop stop-opacity="1" stop-color="rgb(59.062195%, 50.968933%, 24.839783%)" offset="0.855469"/><stop stop-opacity="1" stop-color="rgb(58.790588%, 50.756836%, 24.794006%)" offset="0.859375"/><stop stop-opacity="1" stop-color="rgb(58.518982%, 50.544739%, 24.74823%)" offset="0.863281"/><stop stop-opacity="1" stop-color="rgb(58.248901%, 50.334167%, 24.702454%)" offset="0.867188"/><stop stop-opacity="1" stop-color="rgb(57.977295%, 50.12207%, 24.656677%)" offset="0.871094"/><stop stop-opacity="1" stop-color="rgb(57.705688%, 49.911499%, 24.610901%)" offset="0.875"/><stop stop-opacity="1" stop-color="rgb(57.434082%, 49.699402%, 24.565125%)" offset="0.878906"/><stop stop-opacity="1" stop-color="rgb(57.162476%, 49.487305%, 24.519348%)" offset="0.882812"/><stop stop-opacity="1" stop-color="rgb(56.890869%, 49.275208%, 24.472046%)" offset="0.886719"/><stop stop-opacity="1" stop-color="rgb(56.619263%, 49.064636%, 24.42627%)" offset="0.890625"/><stop stop-opacity="1" stop-color="rgb(56.347656%, 48.852539%, 24.380493%)" offset="0.894531"/><stop stop-opacity="1" stop-color="rgb(56.07605%, 48.641968%, 24.334717%)" offset="0.898438"/><stop stop-opacity="1" stop-color="rgb(55.804443%, 48.429871%, 24.28894%)" offset="0.902344"/><stop stop-opacity="1" stop-color="rgb(55.534363%, 48.217773%, 24.243164%)" offset="0.90625"/><stop stop-opacity="1" stop-color="rgb(55.262756%, 48.005676%, 24.197388%)" offset="0.910156"/><stop stop-opacity="1" stop-color="rgb(54.99115%, 47.795105%, 24.151611%)" offset="0.914062"/><stop stop-opacity="1" stop-color="rgb(54.719543%, 47.583008%, 24.104309%)" offset="0.917969"/><stop stop-opacity="1" stop-color="rgb(54.447937%, 47.370911%, 24.058533%)" offset="0.921875"/><stop stop-opacity="1" stop-color="rgb(54.176331%, 47.158813%, 24.012756%)" offset="0.925781"/><stop stop-opacity="1" stop-color="rgb(53.904724%, 46.948242%, 23.96698%)" offset="0.929688"/><stop stop-opacity="1" stop-color="rgb(53.633118%, 46.736145%, 23.921204%)" offset="0.933594"/><stop stop-opacity="1" stop-color="rgb(53.363037%, 46.525574%, 23.875427%)" offset="0.9375"/><stop stop-opacity="1" stop-color="rgb(53.091431%, 46.313477%, 23.828125%)" offset="0.941406"/><stop stop-opacity="1" stop-color="rgb(52.819824%, 46.101379%, 23.782349%)" offset="0.945312"/><stop stop-opacity="1" stop-color="rgb(52.548218%, 45.889282%, 23.736572%)" offset="0.949219"/><stop stop-opacity="1" stop-color="rgb(52.276611%, 45.678711%, 23.690796%)" offset="0.953125"/><stop stop-opacity="1" stop-color="rgb(52.005005%, 45.466614%, 23.64502%)" offset="0.957031"/><stop stop-opacity="1" stop-color="rgb(51.733398%, 45.256042%, 23.599243%)" offset="0.960938"/><stop stop-opacity="1" stop-color="rgb(51.461792%, 45.043945%, 23.553467%)" offset="0.964844"/><stop stop-opacity="1" stop-color="rgb(51.190186%, 44.831848%, 23.50769%)" offset="0.96875"/><stop stop-opacity="1" stop-color="rgb(50.918579%, 44.619751%, 23.460388%)" offset="0.972656"/><stop stop-opacity="1" stop-color="rgb(50.648499%, 44.40918%, 23.414612%)" offset="0.976562"/><stop stop-opacity="1" stop-color="rgb(50.376892%, 44.197083%, 23.368835%)" offset="0.980469"/><stop stop-opacity="1" stop-color="rgb(50.105286%, 43.984985%, 23.323059%)" offset="0.984375"/><stop stop-opacity="1" stop-color="rgb(49.833679%, 43.772888%, 23.277283%)" offset="0.988281"/><stop stop-opacity="1" stop-color="rgb(49.562073%, 43.562317%, 23.231506%)" offset="0.992188"/><stop stop-opacity="1" stop-color="rgb(49.290466%, 43.35022%, 23.18573%)" offset="0.996094"/><stop stop-opacity="1" stop-color="rgb(49.01886%, 43.139648%, 23.139954%)" offset="1"/></linearGradient><clipPath id="9ae3ebb6e3"><rect x="0" width="337" y="0" height="338"/></clipPath></defs><rect x="-37.5" width="450" fill="#ffffff" y="-37.499999" height="449.999989" fill-opacity="1"/><rect x="-37.5" width="450" fill="#ffffff" y="-37.499999" height="449.999989" fill-opacity="1"/><g clip-path="url(#211bcf1663)"><g clip-path="url(#102698bfbd)"><g transform="matrix(1, 0, 0, 1, 19, 11)"><g clip-path="url(#9ae3ebb6e3)"><g clip-path="url(#05b5e075d5)"><g clip-path="url(#43afa68691)"><path fill="url(#cd18cb7386)" d="M 0.347656 0.890625 L 0.347656 337.191406 L 336.652344 337.191406 L 336.652344 0.890625 Z M 0.347656 0.890625 " fill-rule="nonzero"/></g></g></g></g></g></g><g fill="#d9d9d9" fill-opacity="1"><g transform="translate(122.68274, 224.63646)"><g><path d="M 0.234375 0 L 0.234375 -2.28125 L 6.859375 -2.28125 C 10.972656 -2.28125 13.941406 -3.421875 15.765625 -5.703125 C 17.597656 -7.992188 19.503906 -12.875 21.484375 -20.34375 L 58.984375 -163.234375 L 74.078125 -163.234375 L 115.90625 -13.03125 C 117.125 -8.613281 118.535156 -5.71875 120.140625 -4.34375 C 121.742188 -2.96875 124.375 -2.28125 128.03125 -2.28125 L 129.625 -2.28125 L 129.625 0 L 78.875 0 L 78.875 -2.28125 L 85.734375 -2.28125 C 90.003906 -2.28125 92.785156 -2.8125 94.078125 -3.875 C 95.367188 -4.945312 96.015625 -6.472656 96.015625 -8.453125 C 96.015625 -10.285156 95.632812 -12.457031 94.875 -14.96875 C 94.113281 -17.488281 93.429688 -20.046875 92.828125 -22.640625 L 83.453125 -59.4375 L 34.296875 -59.4375 L 25.609375 -26.515625 C 24.691406 -23.160156 23.851562 -19.882812 23.09375 -16.6875 C 22.332031 -13.488281 21.953125 -10.898438 21.953125 -8.921875 C 21.953125 -6.484375 22.675781 -4.765625 24.125 -3.765625 C 25.570312 -2.773438 28.195312 -2.28125 32 -2.28125 L 41.84375 -2.28125 L 41.84375 0 Z M 34.984375 -61.734375 L 82.765625 -61.734375 L 67.671875 -120.25 C 65.835938 -127.71875 64.347656 -133.703125 63.203125 -138.203125 C 62.066406 -142.703125 61.15625 -146.242188 60.46875 -148.828125 C 59.78125 -151.421875 59.285156 -153.632812 58.984375 -155.46875 C 58.066406 -151.5 57.34375 -148.21875 56.8125 -145.625 C 56.28125 -143.039062 55.671875 -140.488281 54.984375 -137.96875 C 54.296875 -135.457031 53.421875 -132.222656 52.359375 -128.265625 Z M 34.984375 -61.734375 "/></g></g></g><g fill="#ffffff" fill-opacity="1"><g transform="translate(46.817398, 257.455178)"><g><path d="M 0.890625 0 L 0.890625 -0.3125 L 1.890625 -0.3125 C 2.585938 -0.3125 3.039062 -0.46875 3.25 -0.78125 C 3.46875 -1.09375 3.578125 -1.757812 3.578125 -2.78125 L 3.578125 -20.125 C 3.578125 -21.125 3.484375 -21.773438 3.296875 -22.078125 C 3.109375 -22.378906 2.671875 -22.53125 1.984375 -22.53125 L 0.890625 -22.53125 L 0.890625 -22.84375 L 6.046875 -22.84375 L 15.71875 -2.96875 L 15.71875 -20.125 C 15.71875 -21.125 15.617188 -21.773438 15.421875 -22.078125 C 15.234375 -22.378906 14.804688 -22.53125 14.140625 -22.53125 L 12.703125 -22.53125 L 12.703125 -22.84375 L 18.84375 -22.84375 L 18.84375 -22.53125 L 17.59375 -22.53125 C 16.914062 -22.53125 16.484375 -22.375 16.296875 -22.0625 C 16.117188 -21.75 16.03125 -21.082031 16.03125 -20.0625 L 16.03125 0 L 14.34375 0 L 3.90625 -21.4375 L 3.90625 -2.78125 C 3.90625 -1.757812 4 -1.09375 4.1875 -0.78125 C 4.382812 -0.46875 4.8125 -0.3125 5.46875 -0.3125 L 6.90625 -0.3125 L 6.90625 0 Z M 0.890625 0 "/></g></g></g><g fill="#ffffff" fill-opacity="1"><g transform="translate(78.524626, 257.455178)"><g><path d="M 0.03125 0 L 0.03125 -0.3125 L 0.953125 -0.3125 C 1.535156 -0.3125 1.953125 -0.472656 2.203125 -0.796875 C 2.460938 -1.117188 2.734375 -1.800781 3.015625 -2.84375 L 8.25 -22.84375 L 10.375 -22.84375 L 16.21875 -1.828125 C 16.394531 -1.203125 16.59375 -0.789062 16.8125 -0.59375 C 17.039062 -0.40625 17.410156 -0.3125 17.921875 -0.3125 L 18.140625 -0.3125 L 18.140625 0 L 11.046875 0 L 11.046875 -0.3125 L 12 -0.3125 C 12.59375 -0.3125 12.976562 -0.382812 13.15625 -0.53125 C 13.34375 -0.6875 13.4375 -0.90625 13.4375 -1.1875 C 13.4375 -1.4375 13.382812 -1.738281 13.28125 -2.09375 C 13.175781 -2.445312 13.078125 -2.804688 12.984375 -3.171875 L 11.6875 -8.3125 L 4.796875 -8.3125 L 3.578125 -3.71875 C 3.453125 -3.25 3.335938 -2.785156 3.234375 -2.328125 C 3.128906 -1.878906 3.078125 -1.519531 3.078125 -1.25 C 3.078125 -0.90625 3.175781 -0.660156 3.375 -0.515625 C 3.582031 -0.378906 3.953125 -0.3125 4.484375 -0.3125 L 5.859375 -0.3125 L 5.859375 0 Z M 4.890625 -8.640625 L 11.578125 -8.640625 L 9.46875 -16.828125 C 9.21875 -17.878906 9.007812 -18.71875 8.84375 -19.34375 C 8.6875 -19.96875 8.554688 -20.460938 8.453125 -20.828125 C 8.359375 -21.191406 8.289062 -21.503906 8.25 -21.765625 C 8.125 -21.203125 8.023438 -20.738281 7.953125 -20.375 C 7.878906 -20.019531 7.789062 -19.664062 7.6875 -19.3125 C 7.59375 -18.957031 7.472656 -18.503906 7.328125 -17.953125 Z M 4.890625 -8.640625 "/></g></g></g><g fill="#ffffff" fill-opacity="1"><g transform="translate(108.920166, 257.455178)"><g><path d="M 0.890625 0 L 0.890625 -0.3125 L 1.890625 -0.3125 C 2.503906 -0.3125 2.894531 -0.457031 3.0625 -0.75 C 3.238281 -1.039062 3.328125 -1.675781 3.328125 -2.65625 L 3.328125 -20.125 C 3.328125 -21.125 3.238281 -21.773438 3.0625 -22.078125 C 2.894531 -22.378906 2.503906 -22.53125 1.890625 -22.53125 L 0.890625 -22.53125 L 0.890625 -22.84375 L 8.609375 -22.84375 L 8.609375 -22.53125 L 7.609375 -22.53125 C 6.992188 -22.53125 6.59375 -22.378906 6.40625 -22.078125 C 6.226562 -21.773438 6.140625 -21.125 6.140625 -20.125 L 6.140625 -2.65625 C 6.140625 -1.675781 6.226562 -1.039062 6.40625 -0.75 C 6.59375 -0.457031 6.992188 -0.3125 7.609375 -0.3125 L 8.609375 -0.3125 L 8.609375 0 Z M 0.890625 0 "/></g></g></g><g fill="#ffffff" fill-opacity="1"><g transform="translate(130.677832, 257.455178)"><g><path d="M 0.890625 0 L 0.890625 -0.3125 L 1.5625 -0.3125 C 2.226562 -0.3125 2.679688 -0.457031 2.921875 -0.75 C 3.171875 -1.039062 3.296875 -1.726562 3.296875 -2.8125 L 3.296875 -20.03125 C 3.296875 -21.113281 3.171875 -21.800781 2.921875 -22.09375 C 2.679688 -22.382812 2.226562 -22.53125 1.5625 -22.53125 L 0.890625 -22.53125 L 0.890625 -22.84375 L 8.609375 -22.84375 L 8.609375 -22.53125 L 7.875 -22.53125 C 7.207031 -22.53125 6.75 -22.390625 6.5 -22.109375 C 6.257812 -21.835938 6.140625 -21.164062 6.140625 -20.09375 L 6.140625 -0.3125 L 10.96875 -0.3125 C 12.269531 -0.3125 13.171875 -0.5625 13.671875 -1.0625 C 14.179688 -1.570312 14.46875 -2.476562 14.53125 -3.78125 L 14.65625 -6.8125 L 14.96875 -6.8125 L 14.78125 0 Z M 0.890625 0 "/></g></g></g><g fill="#ffffff" fill-opacity="1"><g transform="translate(158.865922, 257.455178)"><g/></g></g><g fill="#ffffff" fill-opacity="1"><g transform="translate(176.720546, 257.455178)"><g><path d="M 0.03125 0 L 0.03125 -0.3125 L 0.953125 -0.3125 C 1.535156 -0.3125 1.953125 -0.472656 2.203125 -0.796875 C 2.460938 -1.117188 2.734375 -1.800781 3.015625 -2.84375 L 8.25 -22.84375 L 10.375 -22.84375 L 16.21875 -1.828125 C 16.394531 -1.203125 16.59375 -0.789062 16.8125 -0.59375 C 17.039062 -0.40625 17.410156 -0.3125 17.921875 -0.3125 L 18.140625 -0.3125 L 18.140625 0 L 11.046875 0 L 11.046875 -0.3125 L 12 -0.3125 C 12.59375 -0.3125 12.976562 -0.382812 13.15625 -0.53125 C 13.34375 -0.6875 13.4375 -0.90625 13.4375 -1.1875 C 13.4375 -1.4375 13.382812 -1.738281 13.28125 -2.09375 C 13.175781 -2.445312 13.078125 -2.804688 12.984375 -3.171875 L 11.6875 -8.3125 L 4.796875 -8.3125 L 3.578125 -3.71875 C 3.453125 -3.25 3.335938 -2.785156 3.234375 -2.328125 C 3.128906 -1.878906 3.078125 -1.519531 3.078125 -1.25 C 3.078125 -0.90625 3.175781 -0.660156 3.375 -0.515625 C 3.582031 -0.378906 3.953125 -0.3125 4.484375 -0.3125 L 5.859375 -0.3125 L 5.859375 0 Z M 4.890625 -8.640625 L 11.578125 -8.640625 L 9.46875 -16.828125 C 9.21875 -17.878906 9.007812 -18.71875 8.84375 -19.34375 C 8.6875 -19.96875 8.554688 -20.460938 8.453125 -20.828125 C 8.359375 -21.191406 8.289062 -21.503906 8.25 -21.765625 C 8.125 -21.203125 8.023438 -20.738281 7.953125 -20.375 C 7.878906 -20.019531 7.789062 -19.664062 7.6875 -19.3125 C 7.59375 -18.957031 7.472656 -18.503906 7.328125 -17.953125 Z M 4.890625 -8.640625 "/></g></g></g><g fill="#ffffff" fill-opacity="1"><g transform="translate(207.116087, 257.455178)"><g><path d="M 0.890625 0 L 0.890625 -0.3125 L 1.65625 -0.3125 C 2.34375 -0.3125 2.785156 -0.460938 2.984375 -0.765625 C 3.191406 -1.066406 3.296875 -1.71875 3.296875 -2.71875 L 3.296875 -20.125 C 3.296875 -21.125 3.191406 -21.773438 2.984375 -22.078125 C 2.785156 -22.378906 2.34375 -22.53125 1.65625 -22.53125 L 0.890625 -22.53125 L 0.890625 -22.84375 L 8.0625 -22.84375 C 10.539062 -22.84375 12.28125 -22.320312 13.28125 -21.28125 C 14.28125 -20.238281 14.78125 -18.753906 14.78125 -16.828125 C 14.78125 -15.078125 14.429688 -13.707031 13.734375 -12.71875 C 13.046875 -11.726562 12.050781 -11.039062 10.75 -10.65625 L 14.375 -3.640625 C 14.90625 -2.640625 15.316406 -1.90625 15.609375 -1.4375 C 15.910156 -0.96875 16.160156 -0.660156 16.359375 -0.515625 C 16.566406 -0.378906 16.773438 -0.3125 16.984375 -0.3125 L 17.125 -0.3125 L 17.125 0 L 16.515625 0 C 15.273438 0 14.296875 -0.203125 13.578125 -0.609375 C 12.867188 -1.015625 12.222656 -1.816406 11.640625 -3.015625 L 8.0625 -10.4375 L 6.140625 -10.4375 L 6.140625 -2.71875 C 6.140625 -1.71875 6.234375 -1.066406 6.421875 -0.765625 C 6.617188 -0.460938 7.050781 -0.3125 7.71875 -0.3125 L 8.453125 -0.3125 L 8.453125 0 Z M 6.140625 -10.75 L 7.78125 -10.75 C 9.226562 -10.75 10.257812 -11.238281 10.875 -12.21875 C 11.5 -13.207031 11.8125 -14.734375 11.8125 -16.796875 C 11.8125 -18.785156 11.515625 -20.238281 10.921875 -21.15625 C 10.335938 -22.070312 9.3125 -22.53125 7.84375 -22.53125 L 6.140625 -22.53125 Z M 6.140625 -10.75 "/></g></g></g><g fill="#ffffff" fill-opacity="1"><g transform="translate(236.359917, 257.455178)"><g><path d="M 3.71875 0 L 3.71875 -0.3125 L 4.734375 -0.3125 C 5.460938 -0.3125 5.929688 -0.46875 6.140625 -0.78125 C 6.359375 -1.09375 6.46875 -1.769531 6.46875 -2.8125 L 6.46875 -22.53125 L 4.15625 -22.53125 C 2.894531 -22.53125 2.046875 -22.304688 1.609375 -21.859375 C 1.171875 -21.410156 0.921875 -20.566406 0.859375 -19.328125 L 0.765625 -17.40625 L 0.453125 -17.40625 L 0.640625 -22.84375 L 15.140625 -22.84375 L 15.328125 -17.40625 L 15.015625 -17.40625 L 14.90625 -19.328125 C 14.84375 -20.566406 14.59375 -21.410156 14.15625 -21.859375 C 13.71875 -22.304688 12.867188 -22.53125 11.609375 -22.53125 L 9.3125 -22.53125 L 9.3125 -2.8125 C 9.3125 -1.769531 9.410156 -1.09375 9.609375 -0.78125 C 9.816406 -0.46875 10.285156 -0.3125 11.015625 -0.3125 L 12 -0.3125 L 12 0 Z M 3.71875 0 "/></g></g></g><g fill="#ffffff" fill-opacity="1"><g transform="translate(264.420039, 257.455178)"><g><path d="M 0.890625 0 L 0.890625 -0.3125 L 1.890625 -0.3125 C 2.503906 -0.3125 2.894531 -0.457031 3.0625 -0.75 C 3.238281 -1.039062 3.328125 -1.675781 3.328125 -2.65625 L 3.328125 -20.125 C 3.328125 -21.125 3.238281 -21.773438 3.0625 -22.078125 C 2.894531 -22.378906 2.503906 -22.53125 1.890625 -22.53125 L 0.890625 -22.53125 L 0.890625 -22.84375 L 8.609375 -22.84375 L 8.609375 -22.53125 L 7.609375 -22.53125 C 6.992188 -22.53125 6.59375 -22.378906 6.40625 -22.078125 C 6.226562 -21.773438 6.140625 -21.125 6.140625 -20.125 L 6.140625 -2.65625 C 6.140625 -1.675781 6.226562 -1.039062 6.40625 -0.75 C 6.59375 -0.457031 6.992188 -0.3125 7.609375 -0.3125 L 8.609375 -0.3125 L 8.609375 0 Z M 0.890625 0 "/></g></g></g><g fill="#ffffff" fill-opacity="1"><g transform="translate(286.177704, 257.455178)"><g><path d="M 6.625 0.3125 C 5.257812 0.3125 4.175781 0.0820312 3.375 -0.375 C 2.570312 -0.832031 2 -1.394531 1.65625 -2.0625 C 1.320312 -2.738281 1.15625 -3.382812 1.15625 -4 C 1.15625 -4.707031 1.332031 -5.25 1.6875 -5.625 C 2.050781 -6.007812 2.523438 -6.203125 3.109375 -6.203125 C 3.109375 -4.285156 3.410156 -2.769531 4.015625 -1.65625 C 4.617188 -0.550781 5.648438 0 7.109375 0 C 8.253906 0 9.140625 -0.375 9.765625 -1.125 C 10.398438 -1.882812 10.71875 -3.023438 10.71875 -4.546875 C 10.71875 -5.671875 10.535156 -6.570312 10.171875 -7.25 C 9.804688 -7.9375 9.285156 -8.523438 8.609375 -9.015625 C 7.941406 -9.515625 7.117188 -10.039062 6.140625 -10.59375 C 4.609375 -11.46875 3.476562 -12.40625 2.75 -13.40625 C 2.019531 -14.40625 1.65625 -15.65625 1.65625 -17.15625 C 1.65625 -19.03125 2.171875 -20.5 3.203125 -21.5625 C 4.242188 -22.632812 5.640625 -23.171875 7.390625 -23.171875 C 8.484375 -23.171875 9.382812 -22.984375 10.09375 -22.609375 C 10.8125 -22.234375 11.347656 -21.75 11.703125 -21.15625 C 12.066406 -20.570312 12.25 -19.984375 12.25 -19.390625 C 12.25 -18.835938 12.082031 -18.398438 11.75 -18.078125 C 11.425781 -17.753906 10.890625 -17.59375 10.140625 -17.59375 C 10.140625 -21.09375 9.109375 -22.84375 7.046875 -22.84375 C 6.078125 -22.84375 5.285156 -22.472656 4.671875 -21.734375 C 4.054688 -21.003906 3.75 -19.914062 3.75 -18.46875 C 3.75 -17.414062 3.914062 -16.566406 4.25 -15.921875 C 4.59375 -15.285156 5.085938 -14.734375 5.734375 -14.265625 C 6.390625 -13.796875 7.175781 -13.296875 8.09375 -12.765625 C 9.03125 -12.210938 9.851562 -11.65625 10.5625 -11.09375 C 11.28125 -10.539062 11.835938 -9.867188 12.234375 -9.078125 C 12.628906 -8.296875 12.828125 -7.285156 12.828125 -6.046875 C 12.828125 -4.085938 12.296875 -2.535156 11.234375 -1.390625 C 10.179688 -0.253906 8.644531 0.3125 6.625 0.3125 Z M 6.625 0.3125 "/></g></g></g><g fill="#ffffff" fill-opacity="1"><g transform="translate(312.350295, 257.455178)"><g><path d="M 3.71875 0 L 3.71875 -0.3125 L 4.734375 -0.3125 C 5.460938 -0.3125 5.929688 -0.46875 6.140625 -0.78125 C 6.359375 -1.09375 6.46875 -1.769531 6.46875 -2.8125 L 6.46875 -22.53125 L 4.15625 -22.53125 C 2.894531 -22.53125 2.046875 -22.304688 1.609375 -21.859375 C 1.171875 -21.410156 0.921875 -20.566406 0.859375 -19.328125 L 0.765625 -17.40625 L 0.453125 -17.40625 L 0.640625 -22.84375 L 15.140625 -22.84375 L 15.328125 -17.40625 L 15.015625 -17.40625 L 14.90625 -19.328125 C 14.84375 -20.566406 14.59375 -21.410156 14.15625 -21.859375 C 13.71875 -22.304688 12.867188 -22.53125 11.609375 -22.53125 L 9.3125 -22.53125 L 9.3125 -2.8125 C 9.3125 -1.769531 9.410156 -1.09375 9.609375 -0.78125 C 9.816406 -0.46875 10.285156 -0.3125 11.015625 -0.3125 L 12 -0.3125 L 12 0 Z M 3.71875 0 "/></g></g></g></svg>